<?xml version="1.0" encoding="UTF-8" standalone="no"?>
<!--
  Asstio square-safe master logo.

  Shape: the Asstio icon-mark path, sourced verbatim from
  asstio-order-web/projects/asstio-order-web/public/icons/asstio-icon-black.svg
  (viewBox 0 0 200 200, single path, id="path33628"). The same path data is
  also used inline (fill="#6D3EFF") in
  asstio-order-web/projects/asstio-order-web/src/app/layout/sidebar-nav/sidebar-nav.html:6,
  which is where the brand-purple fill color below comes from.

  Fill color #6D3EFF: primary brand color, see branding/BRAND.md for full
  source citations.
-->
<svg
   xmlns="http://www.w3.org/2000/svg"
   viewBox="0 0 200 200"
   version="1.1">
  <path
     fill="#6D3EFF"
     d="m 159.46042,99.999999 c 0,-11.007194 -2.80575,-21.366906 -7.98561,-30.431653 -5.17986,-9.064748 -12.30216,-16.402878 -21.36691,-21.582733 -9.06474,-5.179856 -18.9928,-7.985612 -29.99999,-7.985612 -11.223026,0 -21.36691,2.805756 -30.431658,7.985612 -9.064748,5.179855 -16.18705,12.517985 -21.366906,21.582733 -5.179856,9.064747 -7.769783,19.208632 -7.769783,30.431653 0,11.223021 2.3741,21.582731 7.122301,30.647481 4.748202,9.06475 11.438849,16.18705 19.856115,21.36691 C 76.151072,157.41007 85.431647,160 95.791359,160 h 1.726619 51.582732 c 2.80575,0 5.17986,-1.07914 7.33813,-3.02159 1.94244,-1.94244 3.02158,-4.31654 3.02158,-7.33813 v -1.51079 z M 66.654669,120.71942 c -3.453237,-6.04316 -4.964028,-12.94964 -4.964028,-20.719421 0,-7.553957 1.510791,-14.460431 4.964028,-20.719424 3.453238,-6.043165 7.985612,-11.007193 13.812949,-14.460431 5.827338,-3.453237 12.302158,-5.395683 19.640292,-5.395683 7.1223,0 13.59712,1.942446 19.42446,5.395683 5.82733,3.453238 10.35971,8.417266 13.81294,14.460431 3.23741,6.258993 4.96403,13.165467 4.96403,20.719424 0,7.769781 -1.72662,14.676261 -4.96403,20.719421 -3.45323,6.04317 -7.98561,11.0072 -13.81294,14.46043 -5.82734,3.45324 -12.30216,5.17986 -19.42446,5.17986 -7.338134,0 -13.812954,-1.72662 -19.640292,-5.17986 -5.827337,-3.45323 -10.359711,-8.41726 -13.812949,-14.46043 z"
     id="path33628" />
</svg>
